<?xml version="1.0" standalone="no"?>
<svg viewBox="0 0 200 200" xmlns="http://www.w3.org/2000/svg">
  <path fill="#FF0066" d="M26.4,-53.4C30.8,-43.2,28.5,-29.2,38,-19.6C47.6,-10.1,68.9,-5.1,69.5,0.4C70.2,5.8,50.2,11.6,42.7,24.7C35.2,37.7,40.1,57.8,35.1,67.3C30,76.7,15,75.3,2,71.9C-11,68.4,-22.1,62.9,-32.1,56.4C-42.1,49.8,-51.1,42.3,-60.1,32.7C-69.1,23.1,-78,11.6,-82.1,-2.4C-86.2,-16.3,-85.4,-32.5,-75.3,-40.2C-65.2,-47.8,-45.8,-46.8,-31.7,-51.4C-17.7,-56,-8.8,-66.1,1.1,-68C11,-69.9,22,-63.5,26.4,-53.4Z" transform="translate(100 100)" />
</svg>
